The Wedding Video (2012) DVDRip

Screens:
 
http://imageshack.us/a/img692/7443/vlcsnap2013010810h49m28c.png
 
http://imageshack.us/a/img221/4337/vlcsnap2013010810h52m01.png
 
http://imageshack.us/a/img84/3442/vlcsnap2013010810h52m20.png

[General]
Format: AVI
Format/Info: Audio Video Interleave
File size: 699 MiB
Duration: 1h 30mn
Overall bit rate: 1 084 Kbps

[Video]
Format: xvid
Codec ID: xvid
Duration: 1h 30mn
Bit rate: 943 Kbps
Width: 640 pixels
Height: 366 pixels
Display aspect ratio: 16:9
Frame rate: 25.000 fps
Bits/(Pixel*Frame): 0.161
Stream size: 608 MiB (87%)

[Audio]
Format: MPEG Audio
Format version: Version 1
Format profile: Layer 3
Mode: Joint stereo
Mode extension: MS Stereo
Codec ID: 55
Codec ID/Hint: MP3
Duration: 1h 30mn
Bit rate mode: Constant
Bit rate: 128 Kbps
Channel(s): 2 channels
Sampling rate: 48.0 KHz
Compression mode: Lossy
Stream size: 82.6 MiB (12%)
Alignment: Aligned on interleaves
Interleave, duration: 24 ms (0.60 video frame)